<?xml version="1.0" encoding="utf-8"?>
<!-- Generator: Adobe Illustrator 27.6.1, SVG Export Plug-In . SVG Version: 6.00 Build 0)  -->
<svg version="1.1" id="レイヤー_1" xmlns="http://www.w3.org/2000/svg" xmlns:xlink="http://www.w3.org/1999/xlink" x="0px"
	 y="0px" viewBox="0 0 24 24" style="enable-background:new 0 0 24 24;" xml:space="preserve">
<style type="text/css">
	.st0{fill:#485E75;}
</style>
<g>
	<path class="st0" d="M19.487,4H4.513c-1.654,0-3,1.346-3,3v10c0,1.654,1.346,3,3,3h14.975c1.654,0,3-1.346,3-3V7
		C22.487,5.346,21.142,4,19.487,4z M20.987,17c0,0.827-0.673,1.5-1.5,1.5H4.513c-0.827,0-1.5-0.673-1.5-1.5V9.647h17.975V17z
		 M20.987,8.147H3.013V7c0-0.827,0.673-1.5,1.5-1.5h14.975c0.827,0,1.5,0.673,1.5,1.5V8.147z"/>
	<path class="st0" d="M8.25,14.5h-2.5C5.336,14.5,5,14.836,5,15.25S5.336,16,5.75,16h2.5C8.664,16,9,15.664,9,15.25
		S8.664,14.5,8.25,14.5z"/>
	<path class="st0" d="M5.5,12.75h6c0.414,0,0.75-0.336,0.75-0.75s-0.336-0.75-0.75-0.75h-6c-0.414,0-0.75,0.336-0.75,0.75
		S5.086,12.75,5.5,12.75z"/>
</g>
</svg>
