<svg width="137" height="32" viewBox="0 0 137 32" fill="none" xmlns="http://www.w3.org/2000/svg">
<path d="M44.5864 20.6334C47.2321 17.9877 48.7163 14.3741 48.6517 10.6959C48.6517 7.92115 47.7483 5.21093 45.7479 3.14599C41.489 -1.24199 35.8104 -0.725755 32.3259 2.75882C28.8413 -0.661226 23.1627 -1.17746 18.9038 3.14599C16.8389 5.21093 16 7.98568 16 10.6959C16 14.4386 17.4842 17.9877 20.0653 20.6334C22.5174 23.15 27.6798 28.3124 30.4545 31.0871C30.9708 31.6033 31.6806 31.8615 32.3259 31.8615C32.3259 31.8615 33.1648 31.7969 33.5519 31.6033C33.4229 30.6999 33.1648 28.6995 34.778 26.441C35.1006 25.9893 36.004 25.1504 36.3267 24.7633C36.9074 24.0534 37.2301 23.4081 37.5527 22.6338C37.8754 21.6013 38.198 20.5689 38.5207 19.4719C38.7143 18.8266 39.4241 18.4394 40.0694 18.5685C40.7147 18.762 41.1018 19.3428 40.9728 19.9881C40.7792 21.0851 40.5856 22.2466 40.3275 23.4081C40.263 23.9244 40.7792 24.3116 41.2309 24.0534" fill="#00AFD5"/>
<path d="M34.7134 26.4402C35.036 25.9885 35.9394 25.1497 36.2621 24.7625C36.8428 24.0527 37.1655 23.4074 37.4881 22.633C37.8108 21.6006 38.1334 20.5681 38.4561 19.4711C38.6497 18.8258 39.3595 18.4386 40.0048 18.5677C40.6501 18.7613 41.0372 19.342 40.9082 19.9873C40.7146 21.0843 40.521 22.2458 40.2629 23.4074C40.1983 23.9236 40.7146 24.3108 41.1663 24.0527L44.0056 21.2134C44.1992 21.0198 44.3927 20.8907 44.5218 20.6971C44.5218 20.6971 44.6509 20.5681 44.7154 20.5036C46.9094 18.116 48.329 15.2767 48.5871 12.2438C48.5871 11.6631 48.2645 11.0823 47.6837 11.0178C47.103 10.9532 46.5222 11.405 46.3931 11.9857C46.006 14.2442 45.4897 15.922 44.4573 17.4062C44.3282 17.5997 44.0701 17.7288 43.812 17.6643C43.4248 17.5352 43.2957 17.148 43.4893 16.8254C44.909 14.3088 45.6833 11.534 45.6188 8.6302C45.6188 8.04944 45.1026 7.5332 44.5218 7.5332C43.941 7.5332 43.4248 8.04944 43.4248 8.6302C43.4248 11.5985 42.5214 14.5024 40.7791 16.8899C40.6501 17.019 40.521 17.0835 40.3274 17.0835C39.9402 17.0835 39.7466 16.6318 39.9402 16.3092C41.2953 14.1152 42.1342 11.5985 42.2633 9.0819C42.2633 8.50114 41.8761 7.92038 41.2308 7.92038C40.6501 7.92038 40.0693 8.30755 40.0693 8.95284C39.8757 11.6631 38.8432 14.3733 37.101 16.5673C36.9719 16.7609 36.7138 16.8899 36.4557 16.8899C36.133 16.8899 35.9394 16.5028 36.133 16.2446C36.8428 15.1476 37.4881 13.9861 37.9398 12.8246C38.1334 12.3084 37.9398 11.6631 37.4881 11.405C36.9074 11.0823 36.1975 11.405 35.9394 11.9857C35.1005 14.1152 33.81 16.051 32.1322 17.6643C32.1322 17.6643 28.1314 20.6326 27.6797 26.9565C27.6797 27.2146 27.5506 28.2471 28.325 29.0859C29.0348 29.7958 30.1318 30.9573 30.8416 31.538C31.2933 31.9252 32.5194 32.2479 33.5518 31.7316C33.5518 31.7316 33.1001 28.8278 34.7134 26.5693V26.4402Z" fill="#57C3EA"/>
<path d="M83.2394 8.41707H82.2715V2.54492H84.8526C85.7561 2.54492 86.4659 3.25474 86.4659 4.15815V4.67438C86.4659 5.57779 85.7561 6.28761 84.8526 6.28761H83.1749V8.4816L83.2394 8.41707ZM83.2394 5.25515H84.9172C85.3044 5.25515 85.5625 4.9325 85.5625 4.60985V4.09362C85.5625 3.70645 85.2398 3.44833 84.9172 3.44833H83.2394V5.25515Z" fill="#251714"/>
<path d="M72.5277 8.54636C71.3661 8.54636 70.3982 7.57842 70.3982 6.4169V4.48102C70.3982 3.3195 71.3661 2.35156 72.5277 2.35156C73.6892 2.35156 74.6571 3.3195 74.6571 4.48102H73.6892C73.6892 3.83573 73.1729 3.3195 72.5277 3.3195C71.8824 3.3195 71.3661 3.83573 71.3661 4.48102V6.4169C71.3661 7.06219 71.8824 7.57842 72.5277 7.57842C73.1729 7.57842 73.6892 7.06219 73.6892 6.4169H74.6571C74.6571 7.57842 73.6892 8.54636 72.5277 8.54636Z" fill="#251714"/>
<path d="M98.0165 8.54628C96.9195 8.54628 96.0161 7.64288 96.0161 6.54588V4.41642C96.0161 3.31942 96.9195 2.41602 98.0165 2.41602C99.1135 2.41602 100.017 3.31942 100.017 4.41642V6.54588C100.017 7.64288 99.1135 8.54628 98.0165 8.54628ZM98.0165 3.31942C97.4358 3.31942 96.9195 3.83566 96.9195 4.41642V6.54588C96.9195 7.12664 97.4358 7.64288 98.0165 7.64288C98.5973 7.64288 99.1135 7.12664 99.1135 6.54588V4.41642C99.1135 3.83566 98.5973 3.31942 98.0165 3.31942Z" fill="#251714"/>
<path d="M68.9785 3.44833V2.54492H64.8486V8.41707H68.9785V7.44914H65.752V5.83591H68.0751V4.9325H65.752V3.44833H68.9785Z" fill="#251714"/>
<path d="M80.5292 3.44833V2.54492H76.4639V8.41707H80.5292V7.44914H77.3673V5.83591H79.6903V4.9325H77.3673V3.44833H80.5292Z" fill="#251714"/>
<path d="M91.6282 2.54492H87.4983V3.44833H89.1115V8.41707H90.0149V3.44833H91.6282V2.54492Z" fill="#251714"/>
<path d="M120.021 2.54492H115.827V3.44833H117.44V8.41707H118.408V3.44833H120.021V2.54492Z" fill="#251714"/>
<path d="M102.792 8.41707H101.824V2.54492H102.727L104.986 6.41667V2.54492H105.889V8.41707H105.05L102.792 4.4808V8.41707Z" fill="#251714"/>
<path d="M94.2094 2.54492H93.2415V8.41707H94.2094V2.54492Z" fill="#251714"/>
<path d="M108.922 2.54492H107.954V8.41707H108.922V2.54492Z" fill="#251714"/>
<path d="M62.8482 4.0937C62.8482 3.19029 62.1384 2.48047 61.235 2.48047H58.6538V8.35262H59.6217V6.15863H61.2995C61.6867 6.15863 61.9448 6.48128 61.9448 6.80392V8.35262H62.9127V6.80392C62.9127 6.35222 62.7191 5.96504 62.461 5.70693C62.7191 5.44881 62.9127 4.99711 62.9127 4.60993V4.0937H62.8482ZM59.6217 5.25522V3.44841H61.2995C61.6867 3.44841 61.9448 3.77105 61.9448 4.0937V4.60993C61.9448 4.99711 61.6221 5.25522 61.2995 5.25522H59.6217Z" fill="#251714"/>
<path d="M112.794 4.93274C111.503 4.73915 111.503 4.28745 111.503 4.15839C111.503 3.90027 111.568 3.70668 111.761 3.57763C112.019 3.38404 112.407 3.25498 112.858 3.31951C113.568 3.38404 113.891 3.83574 114.02 4.02933L114.794 3.44857C114.536 3.06139 114.02 2.54516 113.052 2.4161C112.084 2.28704 111.503 2.60969 111.18 2.8678C110.793 3.19045 110.6 3.70668 110.664 4.15839C110.664 5.5135 112.213 5.77162 112.729 5.83615C113.568 5.9652 114.02 6.35238 114.02 6.80408C114.02 6.99767 113.955 7.57843 112.858 7.5139C111.955 7.5139 111.503 7.0622 111.245 6.73955L110.535 7.32031C111.116 8.03014 111.89 8.41731 112.794 8.41731H112.923C114.084 8.41731 114.794 7.83655 114.859 6.86861C114.923 6.09426 114.407 5.12632 112.794 4.86821V4.93274Z" fill="#251714"/>
<path d="M60.5252 16.2908H68.6559V18.3557H70.3337V14.5485H65.4295V13.1934H63.6872V14.5485H58.783V18.3557H60.5252V16.2908Z" fill="#251714"/>
<path d="M64.7842 17.5163L63.1709 16.9355L62.203 19.5812H58.783V21.259H61.6222L60.4607 24.4855L61.1705 24.8081C61.1705 24.8081 62.0739 25.2598 63.6872 26.1632C62.3321 27.1312 60.9769 27.6474 59.1701 27.841H58.8475L59.0411 29.5187H59.1701C61.6222 29.2606 63.4291 28.5508 65.2359 27.1312C65.2359 27.1312 65.3004 27.1312 65.3649 27.0666C67.7525 28.4217 69.4303 29.6478 69.4948 29.6478L70.4627 28.2927C70.3982 28.2927 68.785 27.1312 66.4619 25.776C67.3653 24.2919 67.9461 22.4851 68.0106 22.2269H66.2683C66.0102 22.9368 65.5585 24.0983 65.0423 24.9372C64.0098 24.3564 63.2355 23.9692 62.7192 23.7111L63.6226 21.3235H70.7208V19.6458H64.2679L65.0423 17.5808L64.7842 17.5163Z" fill="#251714"/>
<path d="M100.533 13.1289H98.8555C98.8555 13.6451 98.8555 14.1614 98.7909 14.6131H96.0807V17.7105H97.7585V16.3554H98.5328C98.1456 18.6139 97.2422 20.6143 96.0807 22.163V19.7109H93.435C93.8222 18.0977 94.0158 16.6135 94.1448 15.0648H95.8871V13.387H90.9829V15.0648H92.4025C92.2735 17.8395 91.7573 20.2916 89.9504 24.1634L91.4991 24.8732C91.5637 24.6796 91.6927 24.486 91.7573 24.357V27.8415H96.0807V23.0019L96.9196 23.7762C97.0486 23.5826 97.2422 23.4536 97.3713 23.26V29.5193H103.566V27.8415H101.824V26.1638H103.373V24.486H101.824V23.4536H103.373V21.7758H101.824V20.6788H103.566V19.0011H102.082L102.34 18.2267L100.727 17.7105L100.34 18.9365H99.6943C99.9525 18.0977 100.146 17.2588 100.34 16.3554H102.017V17.7105H103.695V14.6131H100.533V13.1289ZM94.403 26.1638H93.4995V21.3886H94.403V26.1638ZM100.146 27.777H99.1136V26.0993H100.146V27.777ZM100.146 24.4215H99.1136V23.389H100.146V24.4215ZM100.146 21.7113H99.1136V20.6143H100.146V21.7113Z" fill="#251714"/>
<path d="M83.5918 17.0885L82.343 18.209L85.7475 22.0033L86.9963 20.8829L83.5918 17.0885Z" fill="#251714"/>
<path d="M76.5286 29.5202H85.0464V22.3574H76.5286V29.5202ZM78.2063 24.0352H83.3041V27.7779H78.2063V24.0352Z" fill="#251714"/>
<path d="M111.568 13.3223H108.729V14.8064H111.568V13.3223Z" fill="#251714"/>
<path d="M111.568 18.8711H108.729V20.3553H111.568V18.8711Z" fill="#251714"/>
<path d="M111.568 21.5176H108.729V23.0017H111.568V21.5176Z" fill="#251714"/>
<path d="M112.149 16.2266H108.148V17.7107H112.149V16.2266Z" fill="#251714"/>
<path d="M108.277 29.5184H112.02V23.8398H108.277V29.5184ZM109.697 25.324H110.535V28.0988H109.697V25.324Z" fill="#251714"/>
<path d="M113.826 21.8401C114.794 20.8722 115.504 19.9688 115.956 19.0654L116.795 19.5816L117.698 18.162L116.537 17.3876C116.73 16.6778 116.795 15.9034 116.859 15H118.214V18.8718C118.214 19.3235 117.827 19.7107 117.375 19.7107H117.053V21.3884H117.375C118.731 21.3884 119.892 20.2914 119.892 18.8718V13.3223H112.988V15H115.182C115.182 15.5163 115.117 15.968 115.052 16.4197L114.02 15.7744L113.117 17.194L114.536 18.0974C114.149 18.9363 113.504 19.7107 112.6 20.6141L113.826 21.7756V21.8401Z" fill="#251714"/>
<path d="M117.053 27.9714H116.214V24.0352H114.536V28.036C114.536 28.9394 115.246 29.6492 116.149 29.6492H117.827C118.343 29.6492 118.795 29.1975 118.795 28.6813V27.3261H117.117V27.9714H117.053Z" fill="#251714"/>
<path d="M112.397 25.0835L112.377 28.8906L114.054 28.8994L114.074 25.0922L112.397 25.0835Z" fill="#251714"/>
<path d="M114.988 22.099C115.698 22.7443 116.278 23.5187 116.924 24.4866L118.279 23.5187C117.569 22.4862 116.924 21.7118 116.149 20.9375L114.988 22.1636V22.099Z" fill="#251714"/>
<path d="M119.828 24.0352L118.214 24.6159C118.731 26.0356 119.118 27.6488 119.311 28.8748L120.989 28.6813C120.796 27.3261 120.408 25.5839 119.828 24.0352Z" fill="#251714"/>
<path d="M79.884 18.0973V21.4528H81.5618V17.3874H80.4648C81.0456 16.6776 81.5618 15.9033 81.8199 15.1289H86.3369V13.4512H74.9153V15.1289H79.9486C79.0452 16.8067 76.9802 18.6135 74.9153 19.8396V21.7754C76.593 20.872 78.4644 19.5169 79.8195 18.0327L79.884 18.0973Z" fill="#251714"/>
</svg>
